<svg width="144" height="144" fill="none" xmlns="http://www.w3.org/2000/svg"><g clip-path="url(#clip0_1773_4977)"><path d="M144.875-17H.125C-13.199-17-24-6.199-24 7.125v144.75C-24 165.199-13.199 176 .125 176h144.75C158.199 176 169 165.199 169 151.875V7.125C169-6.199 158.199-17 144.875-17z" fill="#18211D"/><g opacity=".1"><path d="M26.865 144.624c-2.912 0-5.426-.641-7.54-1.924-2.115-1.283-3.744-3.103-4.888-5.46-1.144-2.392-1.716-5.235-1.716-8.528 0-2.739.433-5.165 1.3-7.28.866-2.115 2.045-3.9 3.536-5.356a15.055 15.055 0 0 1 5.096-3.38 16.348 16.348 0 0 1 6.032-1.144c1.698 0 3.241.139 4.628.416 1.386.243 2.53.624 3.432 1.144l-1.144 6.812h-1.3l-3.016-5.148a11.173 11.173 0 0 0-2.288-.416 27.732 27.732 0 0 0-2.392-.104c-1.768 0-3.346.399-4.732 1.196-1.387.797-2.479 2.149-3.276 4.056-.798 1.907-1.196 4.489-1.196 7.748 0 3.12.468 5.807 1.404 8.06.936 2.219 2.236 3.935 3.9 5.148 1.698 1.179 3.657 1.768 5.876 1.768.485 0 1.04-.017 1.664-.052a14.229 14.229 0 0 0 1.612-.26l4.524-5.928h1.3l-1.196 6.864c-1.942.728-3.658 1.196-5.148 1.404-1.491.243-2.982.364-4.472.364zm21.332 0c-1.109 0-2.149-.243-3.12-.728a6.036 6.036 0 0 1-2.34-2.028c-.554-.867-.832-1.837-.832-2.912 0-1.352.538-2.6 1.612-3.744 1.075-1.144 2.583-2.08 4.524-2.808 1.976-.763 4.299-1.161 6.968-1.196v-4.16c0-.867-.19-1.664-.572-2.392-.346-.763-.918-1.387-1.716-1.872-.762-.485-1.733-.728-2.912-.728-.104 0-.26.017-.468.052-.173 0-.312.017-.416.052l-4.212 4.68H43.57l-.468-4.368a65.677 65.677 0 0 1 3.744-1.404c1.075-.381 2.046-.659 2.912-.832.867-.173 1.734-.26 2.6-.26 1.283 0 2.444.225 3.484.676 1.04.451 1.872 1.109 2.496 1.976.624.832.936 1.872.936 3.12v14.976l3.692 1.092v.884l-6.344 1.924H55.01v-2.86a80.995 80.995 0 0 1-2.444 1.508c-.762.416-1.49.745-2.184.988a6.554 6.554 0 0 1-2.184.364zm2.132-3.068c.659 0 1.37-.104 2.132-.312.763-.208 1.612-.555 2.548-1.04v-6.24c-.45-.104-1.074-.191-1.872-.26a27.813 27.813 0 0 0-2.496-.104c-1.386 0-2.53.312-3.432.936-.866.624-1.3 1.595-1.3 2.912 0 1.387.451 2.427 1.352 3.12.902.659 1.924.988 3.068.988zm17.635 3.588v-33.28l-3.692-1.092v-.884l7.072-1.924h1.612l-.52 5.096v9.932a52.374 52.374 0 0 1 2.964-1.56 16.707 16.707 0 0 1 2.392-1.04c.763-.277 1.473-.416 2.132-.416 1.525 0 2.964.416 4.316 1.248 1.386.797 2.513 2.028 3.38 3.692.867 1.629 1.3 3.744 1.3 6.344 0 2.115-.364 3.987-1.092 5.616a13.05 13.05 0 0 1-2.964 4.212 13.263 13.263 0 0 1-4.108 2.652 12.89 12.89 0 0 1-4.68.884c-.97 0-1.941-.087-2.912-.26-.97-.173-1.768-.381-2.392-.624l-1.716 1.872-1.092-.468zm4.472-4.524c.658.312 1.473.572 2.444.78.97.208 1.959.312 2.964.312 1.352 0 2.53-.26 3.536-.78 1.005-.555 1.768-1.456 2.288-2.704.554-1.248.832-2.895.832-4.94 0-2.392-.347-4.316-1.04-5.772-.694-1.491-1.578-2.565-2.652-3.224-1.075-.659-2.219-.988-3.432-.988-.694 0-1.508.121-2.444.364-.936.243-1.768.537-2.496.884v16.068zM92.522 144v-.936l3.64-1.82V123.98l-3.692-1.04v-.936l6.552-2.028h1.612v21.268l3.64 1.82V144H92.522zm6.032-28.132c-.243 0-.555-.069-.936-.208a8.183 8.183 0 0 1-1.04-.624 9.418 9.418 0 0 1-.832-.832c-.243-.312-.364-.607-.364-.884 0-.312.087-.624.26-.936a5.13 5.13 0 0 1 .78-.988c.312-.347.624-.624.936-.832.347-.208.641-.312.884-.312.208 0 .485.087.832.26.381.139.745.347 1.092.624.347.277.641.555.884.832.243.277.364.572.364.884 0 .277-.104.589-.312.936a5.13 5.13 0 0 1-.78.988 5.138 5.138 0 0 1-.988.78c-.312.208-.572.312-.78.312zM106.792 144v-.936l3.64-1.82V123.98l-3.692-1.04v-.936l6.552-2.028h1.612v3.068c1.49-.901 2.877-1.629 4.16-2.184 1.317-.589 2.513-.884 3.588-.884 1.248 0 2.374.225 3.38.676 1.04.416 1.854 1.057 2.444 1.924.624.867.936 1.976.936 3.328v15.34l3.64 1.82V144h-9.672v-.936l1.56-1.82v-13.312c0-.936-.208-1.751-.624-2.444a4.272 4.272 0 0 0-1.716-1.612c-.728-.381-1.543-.572-2.444-.572-.798 0-1.647.104-2.548.312-.902.208-1.803.537-2.704.988v16.64l3.38 1.82V144h-11.492z" fill="#fff"/></g></g><defs><clipPath id="clip0_1773_4977"><path fill="#fff" d="M0 0H144V144H0z"/></clipPath></defs></svg>
